<svg xmlns="http://www.w3.org/2000/svg" viewBox="0 0 3162.21 818.23">
	<path xmlns="http://www.w3.org/2000/svg" fill="#fc4c69"
		d="m828.12 400.02-17.56-10.13-75.89 131.44h-30.43l95.61-165.57-17.55-10.13-101.35 175.7h-30.52L771.58 311.5l-17.54-10.14-126.59 219.96h-30.84l146.7-254.09-17.56-10.13L573.2 521.33h-30.4L715.03 223 633.5 81.1l-17.56 10.14 75.89 131.45-15.2 26.33-95.6-165.57-17.55 10.14 101.46 175.66-15.23 26.38L528.56 85.8 511 95.94l127.2 219.6-15.42 26.7-146.7-254.09-17.55 10.14L611.08 362.5l-15.2 26.34L423.63 90.5 260 90.2v20.26h151.77l15.21 26.35H235.8v20.25h202.86l15.21 26.35H211.6v20.26h253.8v-.32l15.39 26.68H187.4v20.26h305.08l15.2 26.33H163.2L81.1 418.2l17.56 10.13 75.88-131.43h30.43l-95.6 165.56 17.55 10.14 101.51-175.7h30.37L137.64 506.71l17.54 10.13L282.1 297.07l-.3-.17h30.82l-146.7 254.08 17.56 10.14 152.54-264.23h30.42L194.19 595.24l81.55 141.88L293.28 727l-75.89-131.43 15.22-26.34 95.58 165.54 17.56-10.13L244.33 548.9l15.2-26.3 121.12 209.82 17.55-10.14L271.33 502.5l15.1-26.5 146.7 254.07 17.55-10.14-152.54-264.22 15.2-26.32L485.6 727.7l.09-.05-.1.36h163.65v-20.26H497.47l-15.2-26.35h191.16v-20.25H470.57l-15.21-26.36h242.27v-20.25l-253.8-.01-15.39-26.36h293.4v-20.26h-305.1l-15.2-26.32 344.48-.01 82.1-141.57zM389.84 521.33l-64.8-112.21 64.8-112.23h129.55l64.8 112.23-64.79 112.21H389.84z" />
	<path fill="#65605f"
		d="M1078.2 598.7q-36.5-14.38-62.62-48.76t-26.1-89.79 26.37-89.53 63.15-48.49 69.8-14.39q38.38 0 73.02 17.05t56.75 50.1 23.18 78.33q0 13.86-.53 23.98t-1.07 12.8h-231.28q6.4 30.9 31.98 42.1t47.96 11.18q28.77 0 45.83-10.39t29.3-23.71l61.82 35.7q-50.09 68.21-136.95 68.21-34.1 0-70.61-14.38zm16.25-204.9q-20.78 16.26-23.45 39.7h146.55q-1.6-13.85-10.66-26.64t-24.24-21.05-34.38-8.26q-33.03 0-53.82 16.26zm272.31-191.04h79.94v402.87h-79.94V202.76zm231.02 395.95q-36.5-14.4-62.62-48.77t-26.11-89.79 26.38-89.53 63.15-48.49 69.8-14.39q38.37 0 73.01 17.05t56.76 50.1 23.18 78.33q0 13.86-.53 23.98t-1.07 12.8h-231.28q6.4 30.9 31.97 42.1t47.97 11.18q28.77 0 45.83-10.39t29.3-23.71l61.82 35.7q-50.1 68.21-136.95 68.21-34.11 0-70.61-14.38zm16.25-204.9q-20.78 16.25-23.45 39.7h146.55q-1.6-13.86-10.66-26.65t-24.25-21.05-34.37-8.26q-33.04 0-53.82 16.26zm223.28-80.2h88.47l68.2 143.34 68.22-143.35h89l-157.21 304.82zm569.14 262.71q-10.12 13.86-34.9 24.78t-54.1 10.93q-45.29 0-78.6-20.25t-50.89-55.16-17.58-77.53 17.58-77.54 50.9-55.16 78.6-20.25q30.37 0 53.55 10.4t35.44 26.37v-30.37h78.87v293.1h-78.87v-29.32zm-18.65-177.19q-21.85-23.18-58.62-23.18-37.3 0-58.88 23.18t-21.59 59.96q0 35.7 22.12 59.15t58.35 23.44q37.3 0 58.89-22.11t21.58-60.48q0-36.77-21.85-59.96zm274.98 102.05q0 18.66 6.4 31.18t29.83 12.52q10.66 0 20.25-1.06v67.14q-19.18 2.13-35.7 2.13-34.1 0-55.15-5.6t-32.78-21.57-11.72-45.83V377.55h-35.7v-69.8h35.7V229.4h78.87v78.33h58.62v69.81h-58.62v123.63zm194.77 97.53q-36.5-14.4-62.61-48.77t-26.12-89.79 26.38-89.53 63.15-48.49 69.81-14.39q38.37 0 73 17.05t56.76 50.1 23.18 78.33q0 13.86-.53 23.98t-1.06 12.8h-231.28q6.4 30.9 31.97 42.1t47.96 11.18q28.78 0 45.83-10.39t29.31-23.71l61.82 35.7q-50.1 68.21-136.96 68.21-34.1 0-70.6-14.38zm16.26-204.9q-20.79 16.25-23.45 39.7h146.55q-1.6-13.86-10.66-26.65T2962 385.81t-34.37-8.26q-33.04 0-53.82 16.26z" />
</svg>
