<svg width="142" height="142" viewBox="0 0 142 142" fill="none" xmlns="http://www.w3.org/2000/svg">
  <g clip-path="url(#clip0_1493_2823)">
    <path d="M101.212 101.175H65.7119V53.1299L96.4074 69.9457L101.212 101.175Z" fill="#2F2E41" />
    <path
      d="M72.2707 92.6952C84.9998 92.6952 95.3187 82.3762 95.3187 69.6472C95.3187 56.9181 84.9998 46.5991 72.2707 46.5991C59.5416 46.5991 49.2227 56.9181 49.2227 69.6472C49.2227 82.3762 59.5416 92.6952 72.2707 92.6952Z"
      fill="#FFB6B6" />
    <path
      d="M59.0395 96.1035L57.9983 85.578L78.7914 81.6899L91.0696 111.585L69.7162 136.141L54.502 106.246L59.0395 96.1035Z"
      fill="#FFB6B6" />
    <path
      d="M121.992 120.404C121.733 120.673 121.469 120.94 121.205 121.204C120.367 122.043 119.512 122.857 118.64 123.647C105.561 135.509 88.7795 142 71.0002 142C54.6088 142 39.0662 136.483 26.4917 126.327C26.4837 126.321 26.4784 126.316 26.4703 126.308C26.0886 126.001 25.7123 125.689 25.3359 125.371C25.4027 125.179 25.4747 124.989 25.5468 124.802C29.5906 114.267 37.5768 109.113 42.424 106.858C44.8262 105.739 46.4571 105.331 46.4571 105.331L52.1478 95.0812L56.1542 102.555L59.1063 108.064L71.219 130.664L81.6688 104.645L84.9065 96.5786L85.7367 94.5127L89.6844 97.5849L93.4212 100.492L100.946 102.152L107.05 103.5L115.34 105.331C118.693 108.061 120.732 113.256 121.872 119.71C121.915 119.939 121.955 120.171 121.992 120.404Z"
      fill="#BD8D45" />
    <path
      d="M60.1467 43.4549C62.9542 38.7391 68.1104 35.5034 73.5779 35.0265C79.0455 34.5496 84.684 36.8437 88.2656 41.0023C90.3998 43.4805 91.7992 46.5154 93.8795 49.0389C98.3564 54.4695 105.99 57.6448 107.946 64.4055C108.799 67.3558 108.374 70.5055 107.942 73.5462C107.572 76.1524 107.202 78.7586 106.832 81.3648C106.544 83.393 106.268 85.5311 107.028 87.4333C107.92 89.665 110.056 91.1266 111.436 93.0939C113.785 96.4415 113.614 101.343 111.036 104.518C109.918 105.894 108.436 106.933 107.264 108.264C106.092 109.595 105.223 111.415 105.714 113.119C106.654 116.384 111.774 117.167 112.335 120.518C112.623 122.231 111.439 123.942 109.889 124.725C108.339 125.508 106.514 125.531 104.789 125.322C98.2355 124.525 92.1675 120.43 88.9766 114.65C85.7858 108.871 85.5534 101.554 88.3712 95.5834C90.6854 90.6797 94.9868 86.3465 94.9399 80.9244C94.9144 77.9705 93.5595 75.2115 92.2346 72.5713C89.5229 67.1673 86.8112 61.7634 84.0996 56.3594C82.647 53.4647 80.9613 50.3453 77.9708 49.1018C75.6597 48.1407 73.0373 48.5135 70.5654 48.9066C68.0934 49.2996 65.4748 49.6823 63.1568 48.7379C60.8388 47.7936 59.0873 44.9878 60.1917 42.7416"
      fill="#2F2E41" />
    <path
      d="M64.1861 43.7013C59.7332 42.2355 54.738 44.5886 51.7234 48.1787C48.7088 51.7688 47.2464 56.3746 45.8533 60.8508C45.0554 63.4148 44.2574 65.9787 43.4595 68.5427C42.7088 70.9546 41.9582 73.3666 41.2076 75.7785C40.3246 78.6155 39.4345 81.6294 40.1591 84.5109C40.683 86.5941 42.0309 88.4857 42.0599 90.6335C42.0902 92.8771 40.6852 94.8468 39.4538 96.7226C38.2225 98.5984 37.0667 100.827 37.6533 102.993C38.5457 106.287 43.1257 108.098 42.8746 111.501C42.7908 112.637 42.1339 113.688 42.1459 114.827C42.161 116.276 43.2956 117.528 44.6248 118.106C45.9541 118.683 47.4493 118.714 48.8983 118.689C53.3428 118.611 57.7793 118.083 62.1181 117.116C63.7874 116.744 65.485 116.288 66.8745 115.291C68.264 114.294 69.3006 112.642 69.1198 110.941C68.838 108.291 65.9886 106.787 64.5507 104.544C63.1383 102.34 63.1711 99.547 62.562 97.0011C61.725 93.5023 59.6579 90.4477 58.1061 87.2019C52.2721 74.9995 54.3144 59.446 63.1007 49.1633C63.8776 48.2541 64.7264 47.3395 65.0505 46.1884C65.3746 45.0373 64.9568 43.5707 63.8307 43.168"
      fill="#2F2E41" />
    <path
      d="M121.204 20.7955C107.795 7.3856 89.9645 0 71 0C52.0355 0 34.2055 7.3856 20.7955 20.7955C7.3856 34.2054 0 52.0355 0 71C0 88.3096 6.15244 104.674 17.427 117.596C18.5027 118.832 19.6264 120.035 20.7955 121.204C21.0705 121.479 21.348 121.754 21.6283 122.021C22.3757 122.745 23.1364 123.452 23.9105 124.138C24.3802 124.557 24.8553 124.968 25.3358 125.371C25.7122 125.689 26.0885 126.001 26.4702 126.308C26.4782 126.316 26.4835 126.321 26.4915 126.327C39.066 136.483 54.6086 142 71 142C88.7794 142 105.56 135.509 118.639 123.647C119.512 122.857 120.366 122.043 121.204 121.204C121.469 120.94 121.733 120.673 121.992 120.404C122.713 119.662 123.412 118.906 124.095 118.14C135.671 105.136 142 88.5551 142 71C142 52.0355 134.614 34.2054 121.204 20.7955ZM123.922 117.476C123.254 118.234 122.571 118.981 121.872 119.71C120.783 120.844 119.659 121.944 118.498 123.003C118.058 123.409 117.612 123.804 117.161 124.197C112.604 128.16 107.533 131.545 102.064 134.241C100.145 135.188 98.1775 136.05 96.165 136.822C88.347 139.822 79.8617 141.466 71 141.466C62.448 141.466 54.2483 139.934 46.6598 137.131C43.5449 135.984 40.5341 134.62 37.6434 133.058C37.2189 132.829 36.7972 132.596 36.3782 132.359C34.1734 131.11 32.0407 129.746 29.9935 128.272C28.4641 127.175 26.98 126.02 25.5467 124.802C25.0449 124.378 24.5484 123.948 24.0599 123.508C23.2645 122.801 22.4851 122.072 21.7244 121.325C20.283 119.913 18.9058 118.442 17.5899 116.912C6.96388 104.57 0.533835 88.5231 0.533835 71C0.533835 32.1448 32.1448 0.533835 71 0.533835C109.855 0.533835 141.466 32.1448 141.466 71C141.466 88.7927 134.839 105.064 123.922 117.476Z"
      fill="#3F3D56" />
  </g>
  <defs>
    <clipPath id="clip0_1493_2823">
      <rect width="142" height="142" fill="white" />
    </clipPath>
  </defs>
</svg>
