<?xml version="1.0" standalone="no"?>
<!DOCTYPE svg PUBLIC "-//W3C//DTD SVG 20010904//EN"
 "http://www.w3.org/TR/2001/REC-SVG-20010904/DTD/svg10.dtd">
<svg version="1.0" xmlns="http://www.w3.org/2000/svg"
 width="576.000000pt" height="576.000000pt" viewBox="0 0 576.000000 576.000000"
 preserveAspectRatio="xMidYMid meet">
<metadata>
Created by potrace 1.14, written by Peter Selinger 2001-2017
</metadata>
<g transform="translate(0.000000,576.000000) scale(0.100000,-0.100000)"
fill="#000000" stroke="none">
<path d="M255 5751 c-74 -25 -141 -84 -152 -134 -3 -15 -9 -30 -14 -33 -5 -3
-9 -1195 -9 -2693 0 -2938 -4 -2729 57 -2806 15 -19 34 -35 41 -35 6 0 12 -3
12 -7 0 -5 12 -15 28 -23 24 -13 339 -15 2642 -17 l2615 -2 43 21 c46 22 93
67 119 114 15 26 21 95 25 309 0 6 0 69 -1 140 0 72 0 138 0 148 0 25 0 464 0
482 0 8 0 44 0 80 0 36 0 72 0 80 0 8 0 116 0 240 0 124 0 232 0 240 0 8 0 44
0 80 0 36 0 72 0 80 0 8 0 116 0 240 0 124 0 232 0 240 0 8 0 44 0 80 0 36 0
72 0 80 0 8 0 116 0 240 0 124 0 232 0 240 0 8 0 44 0 80 0 36 0 72 0 80 0 8
0 116 0 240 0 124 0 232 0 240 0 8 0 44 0 80 0 36 0 72 0 80 0 8 0 116 0 240
0 124 0 232 0 240 0 8 0 44 0 80 0 36 0 72 0 80 0 8 0 116 0 240 0 124 0 232
0 240 0 8 0 45 0 83 0 87 0 79 -4 282 -3 193 -6 203 -73 272 -71 74 151 68
-2723 67 -1422 -1 -2595 -4 -2606 -8z"/>
</g>
</svg>
