<svg width="142" height="142" fill="none" xmlns="http://www.w3.org/2000/svg"><g clip-path="url(#a)"><path d="M101.212 101.175h-35.5V53.13l30.695 16.816 4.805 31.229Z" fill="#2F2E41"/><path d="M72.27 92.695c12.73 0 23.049-10.319 23.049-23.048 0-12.729-10.32-23.048-23.048-23.048-12.73 0-23.048 10.32-23.048 23.048 0 12.73 10.319 23.048 23.048 23.048Z" fill="#FFB6B6"/><path d="m59.04 96.103-1.042-10.525 20.793-3.888 12.279 29.895-21.354 24.556-15.214-29.895 4.537-10.142Z" fill="#FFB6B6"/><path d="M121.992 120.404a70.984 70.984 0 0 1-3.352 3.243C105.561 135.509 88.78 142 71 142c-16.391 0-31.934-5.517-44.508-15.673a60.866 60.866 0 0 1-1.156-.956c.067-.192.139-.382.21-.569 4.045-10.535 12.03-15.689 16.878-17.944 2.402-1.119 4.033-1.527 4.033-1.527l5.69-10.25 4.007 7.474 2.952 5.509 12.113 22.6 10.45-26.019 3.237-8.066.83-2.066 3.948 3.072 3.737 2.907 7.525 1.66 6.104 1.348 8.29 1.831c3.353 2.73 5.392 7.925 6.532 14.379.043.229.083.461.12.694Z" fill="#BD8D45"/><path d="M60.147 43.455c2.807-4.716 7.963-7.952 13.43-8.428 5.469-.477 11.107 1.817 14.689 5.975 2.134 2.478 3.533 5.513 5.613 8.037 4.477 5.43 12.111 8.606 14.067 15.367.853 2.95.428 6.1-.004 9.14l-1.11 7.819c-.288 2.028-.564 4.166.196 6.068.892 2.232 3.028 3.694 4.408 5.66 2.349 3.349 2.178 8.25-.4 11.425-1.118 1.376-2.6 2.415-3.772 3.746-1.172 1.331-2.041 3.151-1.55 4.855.94 3.265 6.06 4.048 6.621 7.399.288 1.713-.896 3.424-2.446 4.207-1.55.783-3.375.806-5.1.597-6.553-.797-12.621-4.892-15.812-10.672-3.191-5.779-3.424-13.096-.606-19.067 2.314-4.903 6.616-9.236 6.569-14.659-.026-2.954-1.38-5.713-2.705-8.353L84.1 56.36c-1.453-2.894-3.139-6.014-6.13-7.257-2.31-.961-4.933-.588-7.405-.195-2.472.393-5.09.775-7.408-.17-2.318-.943-4.07-3.75-2.965-5.995" fill="#2F2E41"/><path d="M64.186 43.701c-4.453-1.465-9.448.888-12.463 4.478-3.014 3.59-4.477 8.196-5.87 12.672l-2.394 7.692-2.251 7.235c-.883 2.837-1.773 5.851-1.049 8.733.524 2.083 1.872 3.975 1.9 6.123.031 2.243-1.374 4.213-2.605 6.089-1.232 1.875-2.387 4.104-1.8 6.27.892 3.294 5.472 5.105 5.22 8.508-.083 1.136-.74 2.187-.728 3.326.015 1.449 1.15 2.701 2.479 3.279 1.33.577 2.824.608 4.273.583a66.159 66.159 0 0 0 13.22-1.573c1.67-.372 3.367-.828 4.756-1.825 1.39-.997 2.427-2.649 2.246-4.35-.282-2.65-3.131-4.154-4.57-6.397-1.412-2.204-1.379-4.997-1.988-7.543-.837-3.499-2.904-6.553-4.456-9.8C52.272 75 54.314 59.447 63.101 49.164c.777-.909 1.625-1.823 1.95-2.975.324-1.15-.094-2.617-1.22-3.02" fill="#2F2E41"/><path d="M121.204 20.796C107.795 7.386 89.964 0 71 0 52.035 0 34.206 7.386 20.796 20.796 7.386 34.206 0 52.035 0 71c0 17.31 6.152 33.674 17.427 46.596a71.266 71.266 0 0 0 6.483 6.542c.47.419.945.83 1.426 1.233a60.866 60.866 0 0 0 1.155.956C39.066 136.483 54.61 142 71 142c17.78 0 34.56-6.491 47.639-18.353a70.163 70.163 0 0 0 3.353-3.243 72.056 72.056 0 0 0 2.103-2.264C135.671 105.136 142 88.555 142 71c0-18.965-7.386-36.795-20.796-50.204Zm2.718 96.68a71.288 71.288 0 0 1-6.761 6.721 70.547 70.547 0 0 1-20.996 12.625A70.1 70.1 0 0 1 71 141.466a70.109 70.109 0 0 1-41.007-13.194 68.664 68.664 0 0 1-4.446-3.47 62.262 62.262 0 0 1-1.487-1.294 64.387 64.387 0 0 1-2.336-2.183 70.794 70.794 0 0 1-4.134-4.413C6.964 104.57.534 88.523.534 71 .534 32.145 32.144.534 71 .534c38.855 0 70.466 31.61 70.466 70.466 0 17.793-6.627 34.064-17.544 46.476Z" fill="#3F3D56"/></g><defs><clipPath id="a"><path fill="#fff" d="M0 0h142v142H0z"/></clipPath></defs></svg>